<?xml version="1.0" encoding="utf-8"?>
<!-- Generator: Adobe Illustrator 27.5.0, SVG Export Plug-In . SVG Version: 6.00 Build 0)  -->
<svg version="1.1" xmlns="http://www.w3.org/2000/svg" xmlns:xlink="http://www.w3.org/1999/xlink" x="0px" y="0px"
	 viewBox="0 0 500 500" style="enable-background:new 0 0 500 500;" xml:space="preserve">
<g id="BACKGROUND">
	<rect style="fill:#FFFFFF;" width="500" height="500"/>
	<rect y="393.052" style="fill:#F7F7F7;" width="500" height="106.949"/>
</g>
<g id="OBJECT">
	<path style="opacity:0.1;fill:#898989;" d="M432.278,440.12c0,3.538-24.41,6.406-54.521,6.406c-30.111,0-54.521-2.868-54.521-6.406
		s24.41-6.406,54.521-6.406C407.868,433.713,432.278,436.582,432.278,440.12z"/>
	<ellipse style="opacity:0.1;fill:#898989;" cx="248.34" cy="423.748" rx="138.61" ry="12.717"/>
	<g>
		
			<rect x="62.686" y="74.218" transform="matrix(0.9403 0.3404 -0.3404 0.9403 39.6255 -23.7525)" style="opacity:0.1;" width="49.635" height="53.665"/>
		<g>
			
				<rect x="62.096" y="68.797" transform="matrix(0.9403 0.3404 -0.3404 0.9403 37.7451 -23.8752)" style="fill:#110c31;" width="49.635" height="53.666"/>
			<g>
				<path style="fill:#FFFFFF;" d="M82.582,90.896c-0.324,0.826-0.614,1.321-0.868,1.487c-0.255,0.166-0.632,0.158-1.132-0.023
					c-0.389-0.141-0.644-0.349-0.763-0.625c-0.12-0.276-0.108-0.614,0.037-1.014c0.147-0.336,0.253-0.594,0.317-0.771l2.159-5.441
					c0.171-0.403,0.39-0.66,0.657-0.771c0.266-0.111,0.611-0.09,1.033,0.063l14.488,5.245c0.422,0.153,0.7,0.357,0.834,0.613
					c0.134,0.256,0.131,0.592-0.006,1.007l-1.808,5.568c-0.073,0.2-0.136,0.391-0.189,0.573c-0.054,0.182-0.078,0.267-0.074,0.256
					c-0.145,0.4-0.358,0.659-0.64,0.777c-0.282,0.118-0.633,0.101-1.056-0.052c-0.445-0.161-0.709-0.385-0.793-0.674
					c-0.084-0.288,0.014-0.853,0.293-1.695l1.402-4.395l-4.785-1.732l-5.438,15.021l2.568,0.93l0.65,0.235
					c0.467,0.169,0.773,0.383,0.918,0.643c0.145,0.26,0.145,0.59,0,0.99c-0.141,0.389-0.349,0.65-0.623,0.783
					c-0.274,0.133-0.601,0.131-0.979-0.005l-9.353-3.386c-0.378-0.137-0.63-0.344-0.755-0.622c-0.125-0.278-0.118-0.611,0.023-1.001
					c0.149-0.411,0.364-0.666,0.645-0.766c0.281-0.099,0.683-0.055,1.205,0.135l0.55,0.199l2.567,0.929l5.438-15.021l-4.785-1.732
					L82.582,90.896z"/>
			</g>
			<g>
				
					<rect x="93.425" y="56.91" transform="matrix(0.3404 -0.9403 0.9403 0.3404 -11.9542 139.6703)" style="fill:#FFFFFF;" width="0.304" height="42.891"/>
			</g>
			<g>
				
					<rect x="80.567" y="92.426" transform="matrix(0.3404 -0.9403 0.9403 0.3404 -53.829 151.0055)" style="fill:#FFFFFF;" width="0.304" height="42.891"/>
			</g>
			<g>
				
					<rect x="82.427" y="102.016" transform="matrix(0.3404 -0.9403 0.9403 0.3404 -27.5539 165.0568)" style="fill:#FFFFFF;" width="42.891" height="0.304"/>
			</g>
			<g>
				
					<rect x="47.932" y="89.527" transform="matrix(0.3404 -0.9403 0.9403 0.3404 -38.5634 124.3848)" style="fill:#FFFFFF;" width="42.891" height="0.304"/>
			</g>
		</g>
	</g>
	<g>
		
			<rect x="398.055" y="81.115" transform="matrix(0.9085 0.4179 -0.4179 0.9085 82.0485 -165.804)" style="opacity:0.1;" width="43.185" height="46.692"/>
		
			<rect x="397.41" y="76.53" transform="matrix(0.9085 0.4179 -0.4179 0.9085 80.0742 -165.9549)" style="fill:#110c31;" width="43.185" height="46.692"/>
		<g>
			<g>
				<path style="fill:#FFFFFF;" d="M427.849,113.185l-24.708-11.365l7.016-15.254l24.708,11.365L427.849,113.185z M403.694,101.616
					l23.95,11.016l6.667-14.496l-23.95-11.016L403.694,101.616z"/>
			</g>
			<g>
				<polygon style="fill:#FFFFFF;" points="418.901,100.098 410.086,86.959 410.433,86.727 419.105,99.654 434.564,97.827 
					434.613,98.241 				"/>
			</g>
			<g>
				
					<rect x="402.885" y="98.805" transform="matrix(0.9253 -0.3794 0.3794 0.9253 -6.9135 162.9402)" style="fill:#FFFFFF;" width="14.258" height="0.417"/>
			</g>
			<g>
				
					<rect x="425.736" y="99.034" transform="matrix(0.9668 -0.2554 0.2554 0.9668 -12.9688 112.2985)" style="fill:#FFFFFF;" width="0.417" height="14.108"/>
			</g>
		</g>
	</g>
	<g>
		
			<rect x="433.396" y="169.856" transform="matrix(0.9085 0.4179 -0.4179 0.9085 115.1683 -168.2277)" style="opacity:0.1;" width="16.69" height="18.046"/>
		
			<rect x="433.147" y="168.084" transform="matrix(0.9085 0.4179 -0.4179 0.9085 114.405 -168.2858)" style="fill:#FFBB22;" width="16.69" height="18.046"/>
	</g>
	<g>
		
			<rect x="91.967" y="355.466" transform="matrix(0.9085 0.4179 -0.4179 0.9085 158.7545 -6.9639)" style="opacity:0.1;" width="6.625" height="7.163"/>
		
			<rect x="91.869" y="354.763" transform="matrix(0.9085 0.4179 -0.4179 0.9085 158.4543 -6.9865)" style="fill:#FFBB22;" width="6.625" height="7.163"/>
	</g>
	<g>
		
			<rect x="83.531" y="209.294" transform="matrix(0.81 -0.5864 0.5864 0.81 -109.3328 93.1512)" style="opacity:0.1;" width="11.129" height="12.033"/>
		
			<rect x="82.42" y="208.859" transform="matrix(0.81 -0.5864 0.5864 0.81 -109.2895 92.4185)" style="fill:#E96464;" width="11.129" height="12.033"/>
	</g>
	<g>
		
			<rect x="173.156" y="64.63" transform="matrix(0.81 -0.5864 0.5864 0.81 -6.927 117.2503)" style="opacity:0.1;" width="8.668" height="9.372"/>
		
			<rect x="172.291" y="64.291" transform="matrix(0.81 -0.5864 0.5864 0.81 -6.8926 116.6785)" style="fill:#110c31;" width="8.668" height="9.372"/>
	</g>
	<g>
		
			<rect x="433.014" y="295.422" transform="matrix(0.9237 0.3832 -0.3832 0.9237 149.5592 -145.4018)" style="opacity:0.1;" width="13.465" height="14.558"/>
		
			<rect x="432.759" y="294.001" transform="matrix(0.9237 0.3832 -0.3832 0.9237 148.9953 -145.4126)" style="fill:#110c31;" width="13.465" height="14.558"/>
	</g>
	<g>
		
			<rect x="60.32" y="267.959" transform="matrix(0.9461 -0.3239 0.3239 0.9461 -91.3274 44.0347)" style="opacity:0.1;" width="52.649" height="56.924"/>
		<g>
			
				<rect x="54.706" y="264.289" transform="matrix(0.9461 -0.3239 0.3239 0.9461 -90.4417 42.0191)" style="fill:#110c31;" width="52.649" height="56.924"/>
			
				<rect x="55.38" y="274.472" transform="matrix(0.9461 -0.3239 0.3239 0.9461 -85.3842 39.7112)" style="fill:#FFFFFF;" width="42.49" height="3.863"/>
			
				<rect x="63.508" y="298.216" transform="matrix(0.9461 -0.3239 0.3239 0.9461 -92.6364 43.6235)" style="fill:#FFFFFF;" width="42.49" height="3.863"/>
			
				<rect x="61.045" y="291.618" transform="matrix(0.9461 -0.3239 0.3239 0.9461 -90.8256 41.306)" style="fill:#FFFFFF;" width="35.303" height="3.863"/>
			
				<rect x="58.548" y="284.816" transform="matrix(0.9461 -0.3239 0.3239 0.9461 -88.9167 39.1715)" style="fill:#FFFFFF;" width="29.38" height="3.863"/>
			
				<rect x="66.518" y="308.101" transform="matrix(0.9461 -0.3239 0.3239 0.9461 -96.0287 43.0081)" style="fill:#FFFFFF;" width="29.38" height="3.863"/>
		</g>
	</g>
	<g>
		<g>
			<path style="fill:#110c31;" d="M359.671,427.347H129.222V106.718c0-8.505,6.895-15.4,15.4-15.4h199.648
				c8.505,0,15.4,6.895,15.4,15.4V427.347z"/>
			<path style="fill:#FFFFFF;" d="M359.662,421.241H129.213V100.612c0-8.505,6.895-15.4,15.4-15.4h199.648
				c8.505,0,15.4,6.895,15.4,15.4V421.241z"/>
			<rect x="146.139" y="102.38" style="fill:#DDE5F4;" width="196.597" height="309.357"/>
			<g>
				<rect x="157.777" y="131.621" style="opacity:0.6;fill:#C7D3EB;" width="196.985" height="46.372"/>
				<rect x="164.352" y="120.218" style="fill:#110c31;" width="206.435" height="50.044"/>
				<g>
					<g>
						<path style="fill:#FFFFFF;" d="M213.782,157.991H188.28V132.49h25.502V157.991z M190.519,155.752h21.024v-21.023h-21.024
							V155.752z"/>
					</g>
					<path style="fill:#FFFFFF;" d="M344.078,140.291H226.424c-1.536,0-2.781-1.245-2.781-2.781l0,0
						c0-1.536,1.245-2.781,2.781-2.781h117.654c1.536,0,2.781,1.245,2.781,2.781l0,0
						C346.859,139.046,345.614,140.291,344.078,140.291z"/>
					<path style="fill:#FFFFFF;" d="M312.636,148.913h-86.212c-1.536,0-2.781-1.245-2.781-2.781l0,0
						c0-1.536,1.245-2.781,2.781-2.781h86.212c1.536,0,2.781,1.245,2.781,2.781l0,0
						C315.417,147.667,314.172,148.913,312.636,148.913z"/>
					<path style="fill:#FFFFFF;" d="M335.985,157.534H226.424c-1.536,0-2.781-1.245-2.781-2.781l0,0
						c0-1.536,1.245-2.781,2.781-2.781h109.561c1.536,0,2.781,1.245,2.781,2.781l0,0
						C338.766,156.289,337.521,157.534,335.985,157.534z"/>
				</g>
			</g>
			<g>
				<rect x="157.777" y="186.847" style="fill:#110c31;" width="171.813" height="41.651"/>
				<g>
					<g>
						<path style="fill:#FFFFFF;" d="M198.917,218.285h-21.225v-21.225h21.225V218.285z M179.556,216.422h17.498v-17.497h-17.498
							V216.422z"/>
					</g>
					<path style="fill:#FFFFFF;" d="M307.36,203.554h-97.921c-1.278,0-2.315-1.036-2.315-2.315l0,0c0-1.278,1.036-2.315,2.315-2.315
						h97.921c1.278,0,2.315,1.036,2.315,2.315l0,0C309.675,202.517,308.639,203.554,307.36,203.554z"/>
					<path style="fill:#FFFFFF;" d="M281.192,210.729h-71.753c-1.278,0-2.315-1.036-2.315-2.315l0,0
						c0-1.278,1.036-2.315,2.315-2.315h71.753c1.278,0,2.315,1.036,2.315,2.315l0,0C283.506,209.693,282.47,210.729,281.192,210.729
						z"/>
					<path style="fill:#FFFFFF;" d="M300.625,217.905h-91.186c-1.278,0-2.315-1.036-2.315-2.315l0,0
						c0-1.278,1.036-2.315,2.315-2.315h91.186c1.278,0,2.315,1.036,2.315,2.315l0,0
						C302.939,216.869,301.903,217.905,300.625,217.905z"/>
				</g>
			</g>
			<g>
				<rect x="157.777" y="243.087" style="fill:#110c31;" width="171.813" height="41.651"/>
				<g>
					<g>
						<path style="fill:#FFFFFF;" d="M198.917,274.524h-21.225V253.3h21.225V274.524z M179.556,272.661h17.498v-17.497h-17.498
							V272.661z"/>
					</g>
					<path style="fill:#FFFFFF;" d="M307.36,259.793h-97.921c-1.278,0-2.315-1.036-2.315-2.315l0,0c0-1.278,1.036-2.315,2.315-2.315
						h97.921c1.278,0,2.315,1.036,2.315,2.315l0,0C309.675,258.756,308.639,259.793,307.36,259.793z"/>
					<path style="fill:#FFFFFF;" d="M281.192,266.968h-71.753c-1.278,0-2.315-1.036-2.315-2.315l0,0
						c0-1.278,1.036-2.315,2.315-2.315h71.753c1.278,0,2.315,1.036,2.315,2.315l0,0C283.506,265.932,282.47,266.968,281.192,266.968
						z"/>
					<path style="fill:#FFFFFF;" d="M300.625,274.144h-91.186c-1.278,0-2.315-1.036-2.315-2.315l0,0
						c0-1.278,1.036-2.315,2.315-2.315h91.186c1.278,0,2.315,1.036,2.315,2.315l0,0
						C302.939,273.108,301.903,274.144,300.625,274.144z"/>
				</g>
			</g>
			<g>
				<rect x="157.777" y="299.326" style="fill:#110c31;" width="171.813" height="41.651"/>
				<g>
					<g>
						<path style="fill:#FFFFFF;" d="M198.917,330.763h-21.225v-21.225h21.225V330.763z M179.556,328.9h17.498v-17.497h-17.498
							V328.9z"/>
					</g>
					<path style="fill:#FFFFFF;" d="M307.36,316.032h-97.921c-1.278,0-2.315-1.036-2.315-2.315l0,0c0-1.278,1.036-2.315,2.315-2.315
						h97.921c1.278,0,2.315,1.036,2.315,2.315l0,0C309.675,314.996,308.639,316.032,307.36,316.032z"/>
					<path style="fill:#FFFFFF;" d="M281.192,323.207h-71.753c-1.278,0-2.315-1.036-2.315-2.315l0,0
						c0-1.278,1.036-2.315,2.315-2.315h71.753c1.278,0,2.315,1.036,2.315,2.315l0,0C283.506,322.171,282.47,323.207,281.192,323.207
						z"/>
					<path style="fill:#FFFFFF;" d="M300.625,330.383h-91.186c-1.278,0-2.315-1.036-2.315-2.315l0,0
						c0-1.278,1.036-2.315,2.315-2.315h91.186c1.278,0,2.315,1.036,2.315,2.315l0,0
						C302.939,329.347,301.903,330.383,300.625,330.383z"/>
				</g>
			</g>
			<g>
				<rect x="157.777" y="355.565" style="fill:#110c31;" width="171.813" height="41.651"/>
				<g>
					<g>
						<path style="fill:#FFFFFF;" d="M198.917,387.003h-21.225v-21.225h21.225V387.003z M179.556,385.139h17.498v-17.497h-17.498
							V385.139z"/>
					</g>
					<path style="fill:#FFFFFF;" d="M307.36,372.271h-97.921c-1.278,0-2.315-1.036-2.315-2.315l0,0c0-1.278,1.036-2.315,2.315-2.315
						h97.921c1.278,0,2.315,1.036,2.315,2.315l0,0C309.675,371.235,308.639,372.271,307.36,372.271z"/>
					<path style="fill:#FFFFFF;" d="M281.192,379.447h-71.753c-1.278,0-2.315-1.036-2.315-2.315l0,0
						c0-1.278,1.036-2.315,2.315-2.315h71.753c1.278,0,2.315,1.036,2.315,2.315l0,0C283.506,378.41,282.47,379.447,281.192,379.447z
						"/>
					<path style="fill:#FFFFFF;" d="M300.625,386.622h-91.186c-1.278,0-2.315-1.036-2.315-2.315l0,0
						c0-1.278,1.036-2.315,2.315-2.315h91.186c1.278,0,2.315,1.036,2.315,2.315l0,0
						C302.939,385.586,301.903,386.622,300.625,386.622z"/>
				</g>
			</g>
		</g>
		<g>
			<path style="fill:#FFBB22;" d="M203.68,145.194l7.763,10.628h-5.391L201,148.891l-5.114,6.932h-5.268l7.732-10.536l-7.732-10.629
				h5.36l5.083,6.932l5.083-6.932h5.299L203.68,145.194z"/>
		</g>
	</g>
	<g>
		<g>
			<polygon style="fill:#FEBA7A;" points="366.77,416.638 366.399,421.464 366.223,423.747 365.118,438.114 358.111,438.086 
				359.234,423.673 359.411,421.464 359.605,418.949 			"/>
			<path style="fill:#110c31;" d="M364.537,442.009c0,0-15.732,0.855-23.556-0.673c-5.082-0.991-3.721-2.609-2.141-3.62
				c0.884-0.564,1.892-0.896,2.935-1.04c0.212-0.03,0.419-0.061,0.639-0.098c5.128-0.857,11.623-3.571,13.493-4.099
				c2.104-0.591,3.856,0.228,4.371,1.618c0.511,1.389,2.437,3.127,4.286,0.902c1.853-2.224,1.814,2.042,1.814,2.042
				c0.212,0.65,0.305,1.22,0.312,1.717C366.716,441.271,364.537,442.009,364.537,442.009z"/>
			<path style="fill:#FEFCE1;" d="M364.537,442.009c0,0-15.732,0.855-23.556-0.673c-5.082-0.991-3.721-2.609-2.141-3.62
				c0.884-0.564,1.892-0.896,2.935-1.04c0.212-0.03,0.419-0.061,0.639-0.098c-0.024,0.161-0.057,0.334-0.107,0.512
				c-0.216,0.806-0.657,1.539-0.858,2.345c-0.033,0.117-0.057,0.237-0.029,0.355c0.077,0.322,0.484,0.416,0.816,0.452
				c6.518,0.632,13.11,0.508,19.598-0.376c1.263-0.171,2.532-0.371,3.743-0.762c0.369-0.121,0.734-0.259,1.112-0.345
				C366.716,441.271,364.537,442.009,364.537,442.009z"/>
			<path style="fill:#110c31;" d="M369.564,421.462h-12.423v-97.227H379.2C379.63,335.374,369.564,421.462,369.564,421.462z"/>
			<path style="fill:#0b0720;" d="M369.564,421.462h-10.742c14.509-15.016,14.577-76.501,14.19-97.227h6.187
				C379.63,335.374,369.564,421.462,369.564,421.462z"/>
			<path style="opacity:0.1;" d="M366.399,421.464l-0.176,2.283c-1.773,0.009-5.81-0.056-6.988-0.074l0.176-2.209H366.399z"/>
			<rect x="355.362" y="419.034" style="fill:#110c31;" width="16.255" height="3.572"/>
		</g>
		<g>
			<polygon style="fill:#FEBA7A;" points="392.537,416.638 392.908,421.464 393.084,423.747 394.189,438.114 401.196,438.086 
				400.073,423.673 399.896,421.464 399.702,418.949 			"/>
			<path style="fill:#110c31;" d="M394.77,442.009c0,0,15.732,0.855,23.556-0.673c5.082-0.991,3.721-2.609,2.141-3.62
				c-0.883-0.564-1.892-0.896-2.935-1.04c-0.212-0.03-0.419-0.061-0.639-0.098c-5.128-0.857-11.623-3.571-13.493-4.099
				c-2.104-0.591-3.856,0.228-4.371,1.618c-0.51,1.389-2.437,3.127-4.286,0.902c-1.853-2.224-1.814,2.042-1.814,2.042
				c-0.212,0.65-0.305,1.22-0.312,1.717C392.591,441.271,394.77,442.009,394.77,442.009z"/>
			<path style="fill:#FEFCE1;" d="M394.77,442.009c0,0,15.732,0.855,23.556-0.673c5.082-0.991,3.721-2.609,2.141-3.62
				c-0.883-0.564-1.892-0.896-2.935-1.04c-0.212-0.03-0.419-0.061-0.639-0.098c0.024,0.161,0.057,0.334,0.107,0.512
				c0.216,0.806,0.657,1.539,0.858,2.345c0.033,0.117,0.057,0.237,0.028,0.355c-0.076,0.322-0.484,0.416-0.816,0.452
				c-6.518,0.632-13.11,0.508-19.598-0.376c-1.263-0.171-2.532-0.371-3.743-0.762c-0.369-0.121-0.734-0.259-1.112-0.345
				C392.591,441.271,394.77,442.009,394.77,442.009z"/>
			<path style="fill:#110c31;" d="M389.743,421.462h12.423v-97.227h-22.058C379.677,335.374,389.743,421.462,389.743,421.462z"/>
			<path style="fill:#0b0720;" d="M389.743,421.462h10.742c-14.509-15.016-14.577-76.501-14.19-97.227h-6.187
				C379.677,335.374,389.743,421.462,389.743,421.462z"/>
			<path style="opacity:0.1;" d="M392.908,421.464l0.176,2.283c1.773,0.009,5.81-0.056,6.989-0.074l-0.176-2.209H392.908z"/>
			
				<rect x="387.69" y="419.034" transform="matrix(-1 -1.224647e-16 1.224647e-16 -1 791.6349 841.6395)" style="fill:#110c31;" width="16.254" height="3.572"/>
		</g>
		<g>
			<path style="fill:#FECA8C;" d="M415.738,331.717c0.802,1.912,0.173,4.091-0.461,6.066c-0.246,0.767-0.503,1.553-1.011,2.178
				c-0.508,0.625-1.332,1.06-2.117,0.878c-0.92-0.214-1.477-1.19-1.595-2.127c-0.118-0.937,0.088-1.881,0.121-2.825
				c0.05-1.45-0.321-2.911-1.057-4.162c-0.676,0.247-1.065,0.966-1.227,1.667c-0.162,0.701-0.159,1.436-0.362,2.127
				c-0.076,0.259-0.199,0.531-0.44,0.652c-0.291,0.147-0.655,0.018-0.898-0.2c-0.799-0.718-0.549-2.008-0.22-3.032
				c0.566-1.764,3.659-13.394,6.194-12.086c1.378,0.711,0.4,3.609,0.378,4.741C412.992,328.274,414.786,329.447,415.738,331.717z"/>
			<g>
				<path style="fill:#FECA8C;" d="M299.309,201.897c-0.127-1.305,0.071-2.675-0.42-3.892c-0.302-0.749-0.842-1.374-1.387-1.969
					c-1.907-2.084-3.997-4-6.237-5.72c-0.423-0.325-0.975-0.657-1.454-0.422c-0.406,0.199-0.538,0.744-0.414,1.178
					c0.124,0.435,0.44,0.785,0.746,1.118c0.457,0.498,0.914,0.995,1.37,1.492c0.405,0.44,0.838,1.042,0.578,1.581
					c-0.159,0.331-0.527,0.496-0.859,0.654c-1.033,0.491-1.983,1.156-2.797,1.96c-0.387,0.383-0.762,0.836-0.81,1.378
					c-0.032,0.361,0.086,0.717,0.224,1.052c0.465,1.129,1.18,2.155,2.079,2.982c2.207,2.03,5.503,2.899,7.043,5.472
					c0.538,0.897,1.376,1.871,1.934,2.52c0.259,0.301,0.904-0.449,1.273-0.597c0.793-0.318,3.722-1.133,3.177-1.79
					c-1.413-1.704-1.445-1.803-2.244-2.747C300.103,204.958,299.46,203.45,299.309,201.897z"/>
				<path style="fill:#110c31;" d="M344.562,241.756c-6.331-1.411-12.66-3.961-18.595-1.345c-1.4,0.617-2.763,1.472-3.569,2.772
					c-0.806,1.3-0.914,3.122,0.073,4.291c0.612,0.724,1.53,1.101,2.413,1.446c10.794,4.218,21.905,7.627,33.207,10.19
					c3.985,0.904,8.895,1.406,11.464-1.772c1.488-1.841,2.046-3.308,0.489-5.746c-1.796-2.812-4.651-3.779-7.023-4.598
					C356.849,244.862,350.936,243.177,344.562,241.756z"/>
				<path style="fill:#110c31;" d="M295.854,208.258l26.619,39.222c0,0,3.1,4.041,11.291-0.935c8.191-4.975-4.056-9.045-4.056-9.045
					l-27.975-31.973L295.854,208.258z"/>
			</g>
			<path style="fill:#110c31;" d="M404.845,322.018c0.069,1.485-1.2,2.806-3.057,3.178c-1.235,0.242-2.711,0.768-4.412,1.304
				c-4.102,1.304-9.49,2.711-15.784,0.483c-9.326-3.307-14.316-0.363-22.01-0.535c-7.702-0.181-5.069-7.59-5.069-7.59
				s0.017-0.164,0.043-0.484c0.311-3.247,2.021-21.604,2.219-25.3c0.224-4.067,2.495-37.622,2.72-41.335
				c0.225-3.704,5.656-3.886,5.656-3.886c11.311-1.416,23.521-1.235,29.859,0c6.338,1.243,6.338,4.775,6.338,4.775L402.479,274
				l0.017,0.319l0.794,16.121L404.845,322.018z"/>
			<g>
				<g>
					<path style="fill:#110c31;" d="M401.85,273.747c3.599,4.67,6.535,10.135,12.202,11.763c1.336,0.384,2.786,0.58,4.106,0.141
						c1.32-0.439,2.456-1.648,2.447-3.039c-0.005-0.862-0.427-1.66-0.843-2.415c-5.082-9.228-10.856-18.076-17.257-26.444
						c-2.257-2.951-5.393-6.16-9.037-5.436c-2.111,0.419-3.354,1.119-3.686,3.728c-0.383,3.009,1.048,5.346,2.227,7.299
						C395.077,264.427,398.226,269.045,401.85,273.747z"/>
					<path style="fill:#110c31;" d="M413.767,325.337l6.807-42.909c0,0,0.37-4.615-8.188-6.248
						c-8.558-1.633-2.428,5.654-2.428,5.654l-0.422,41.822L413.767,325.337z"/>
				</g>
			</g>
		</g>
		<polygon style="fill:#F3A879;" points="386.211,249.537 378.714,256.748 376.068,253.953 374.804,231.965 386.103,232.26 		"/>
		<path style="fill:#E59467;" d="M375.449,243.181c0.222-0.037,9.846-1.6,10.654-5.02c0.226-0.957-0.222-6.71-0.222-6.71
			l-10.891,3.146L375.449,243.181z"/>
		<g>
			<path style="fill:#110c31;" d="M377.835,325.888c-1.166-4.184-2.046-8.626-1.589-13.042c0.216-2.144,0.751-4.27,1.269-6.328
				c0.138-0.551,0.276-1.111,0.414-1.661c0.604-2.505,1.097-5.079,1.468-7.636c0.63-4.365,0.829-8.23,0.604-11.82
				c-0.19-3.151-0.725-6.379-1.243-9.496c-1.062-6.439-2.028-13.004-0.163-19.315l0.118,0.159c-1.831,6.216-0.585,12.7,0.477,19.087
				c0.518,3.125,1.053,6.362,1.243,9.539c0.225,3.624,0.026,7.516-0.613,11.906c-0.371,2.574-0.863,5.157-1.468,7.679
				c-0.138,0.551-0.276,1.111-0.414,1.661c-0.518,2.04-1.045,4.15-1.261,6.267c-0.458,4.416,0.449,8.893,1.632,13.103
				L377.835,325.888z"/>
		</g>
		<polygon style="fill:#B6D5D4;" points="381.9,249.895 378.714,256.748 386.168,251.999 		"/>
		<polygon style="fill:#FFFFFF;" points="389.586,246.37 386.166,244.766 381.9,249.895 386.379,256.748 		"/>
		<polygon style="fill:#B6D5D4;" points="378.714,256.748 376.068,248.632 373.423,251.157 		"/>
		<polygon style="fill:#FFFFFF;" points="375.587,245.145 376.068,248.632 371.619,253.321 373.423,247.069 		"/>
		<path style="fill:#FFFFFF;" d="M378.714,260.75c0,0.773-0.513,1.4-1.145,1.4c-0.633,0-1.145-0.627-1.145-1.4s0.513-1.4,1.145-1.4
			C378.201,259.351,378.714,259.977,378.714,260.75z"/>
		<path style="fill:#FFFFFF;" d="M380.336,275.836c0,0.773-0.513,1.4-1.145,1.4c-0.633,0-1.145-0.627-1.145-1.4s0.513-1.4,1.145-1.4
			C379.823,274.436,380.336,275.063,380.336,275.836z"/>
		<path style="fill:#FFFFFF;" d="M380.76,291.977c0,0.773-0.513,1.4-1.145,1.4c-0.633,0-1.145-0.627-1.145-1.4s0.513-1.4,1.145-1.4
			C380.248,290.577,380.76,291.204,380.76,291.977z"/>
		<path style="fill:#FFFFFF;" d="M378.541,306.525c0,0.773-0.513,1.4-1.145,1.4c-0.633,0-1.145-0.627-1.145-1.4s0.513-1.4,1.145-1.4
			C378.029,305.125,378.541,305.752,378.541,306.525z"/>
		<path style="fill:#FFFFFF;" d="M377.568,321.257c0,0.773-0.513,1.4-1.145,1.4c-0.632,0-1.145-0.627-1.145-1.4s0.513-1.4,1.145-1.4
			C377.055,319.857,377.568,320.483,377.568,321.257z"/>
		<path style="fill:#261b72;" d="M404.845,322.018c0.069,1.485-1.2,2.806-3.057,3.178c-1.235,0.242-2.711,0.768-4.412,1.304
			c-0.121-0.509-0.181-1.036-0.207-1.554c-0.173-3.713,0.976-7.34,1.52-11.018c1.667-11.104-2.124-22.545-0.104-33.598
			c0.25-1.382,1.174-5.993,2.962-6.295c0.328-0.06,0.648,0.06,0.95,0.285l0.794,16.121L404.845,322.018z"/>
		<g>
			<path style="fill:#F3A879;" d="M366.745,212.594c0,0-4.961,16.459-0.663,22.533s14.34,8.068,23.045-1.003
				c0,0,6.311-8.01,5.388-15.382c-1.064-8.497-3.331-14.602-16.064-13.978C368.53,205.25,366.745,212.594,366.745,212.594z"/>
			<path style="fill:#4F054C;" d="M397.549,220.59c-3.372,0.092-2.867,4.803-2.867,4.803s0.352,7.149-2.563,7.879
				c-0.574,0.153-1.28,0.044-2.138-0.415c-6.251-3.356-2.879-13.477-2.217-16.618c0.136-0.645-0.17-1.302-0.751-1.619
				c-2.176-1.198-7.833-3.707-15.438-2.716c-9.835,1.283-10.859,0.089-10.856-6.719c-0.001-4.79,1.783-6.216,3.327-7.268
				c1.589-1.08,3.575-1.383,5.45-0.964c10.102,2.237,12.703,1.55,15.14,0.976c1.815-0.425,3.539-0.783,8.229,0.19
				c11.32,2.354,4.997,14.371,4.997,14.371C400.475,213.939,400.927,220.499,397.549,220.59z"/>
			<path style="fill:#F3A879;" d="M389.944,221.192c-0.143,1.655-1.601,2.88-3.256,2.737c-1.655-0.143-2.88-1.601-2.737-3.256
				s1.601-2.88,3.256-2.737C388.862,218.08,390.088,219.538,389.944,221.192z"/>
			<path style="fill:#4F054C;" d="M368.947,218.958c-0.083,0.957-0.676,1.688-1.325,1.631c-0.649-0.056-1.108-0.878-1.025-1.835
				c0.083-0.957,0.676-1.688,1.325-1.631C368.571,217.179,369.03,218.001,368.947,218.958z"/>
			<path style="fill:#4F054C;" d="M376.056,219.574c-0.083,0.957-0.676,1.688-1.325,1.631c-0.649-0.056-1.108-0.878-1.025-1.835
				c0.083-0.957,0.676-1.688,1.325-1.631C375.68,217.795,376.139,218.617,376.056,219.574z"/>
			<g>
				<path style="fill:#EA7A68;" d="M370.821,228.118c-0.011-0.001-0.023-0.003-0.034-0.005c-0.95-0.194-1.846-0.683-2.523-1.379
					c-0.23-0.236-0.539-0.605-0.585-1.081c-0.044-0.461,0.169-0.87,0.372-1.217c0.647-1.106,1.426-2.134,2.315-3.056
					c0.112-0.116,0.297-0.119,0.414-0.008c0.116,0.112,0.12,0.297,0.008,0.413c-0.857,0.889-1.608,1.881-2.231,2.946
					c-0.157,0.268-0.322,0.579-0.295,0.866c0.021,0.222,0.156,0.454,0.423,0.729c0.595,0.612,1.384,1.043,2.221,1.214
					c0.158,0.032,0.26,0.186,0.228,0.345C371.102,228.032,370.966,228.13,370.821,228.118z"/>
			</g>
			<path style="fill:#FFFFFF;" d="M367.972,231.29c0,0,2.95,1.065,5.01-0.486c2.06-1.551,2.031,4.181-1.729,3.997
				C367.492,234.617,365.988,230.591,367.972,231.29z"/>
			<path style="fill:#4F054C;" d="M365.375,215.648c-0.137,0.205-0.143,0.514,0.043,0.677c0.155,0.136,0.384,0.132,0.59,0.127
				c1.09-0.029,2.184,0.094,3.24,0.365c0.219,0.056,0.441,0.119,0.667,0.1c0.225-0.019,0.457-0.14,0.538-0.351
				c0.077-0.201-0.003-0.435-0.147-0.594c-0.145-0.159-0.344-0.256-0.541-0.34c-0.742-0.314-1.566-0.495-2.368-0.576
				C366.786,214.994,365.747,215.09,365.375,215.648z"/>
			<path style="fill:#4F054C;" d="M372.23,216.094c-0.137,0.205-0.143,0.514,0.043,0.677c0.156,0.136,0.384,0.132,0.59,0.127
				c1.09-0.029,2.184,0.094,3.24,0.365c0.219,0.056,0.441,0.119,0.666,0.1c0.225-0.019,0.457-0.14,0.538-0.351
				c0.077-0.201-0.003-0.435-0.147-0.594s-0.344-0.256-0.541-0.34c-0.742-0.314-1.566-0.495-2.368-0.576
				C373.641,215.44,372.602,215.536,372.23,216.094z"/>
			<path style="opacity:0.5;fill:#3F033F;" d="M397.549,220.59c-3.372,0.092-2.867,4.803-2.867,4.803s0.352,7.149-2.563,7.879
				c-0.466-1.343-0.485-2.84-0.462-4.28c0.093-5.45,0.614-10.899,1.549-16.27c0.636-3.645,1.323-7.869-1.122-10.649
				c-1.589-1.809-4.081-2.452-6.274-3.454c-0.292-0.138-0.71-0.377-1.174-0.689c1.815-0.425,3.539-0.783,8.229,0.19
				c11.32,2.354,4.997,14.371,4.997,14.371C400.475,213.939,400.927,220.499,397.549,220.59z"/>
		</g>
	</g>
</g>
<g id="DESIGNED_BY_FREEPIK">
</g>
</svg>
